<svg width="28" height="28" viewBox="0 0 28 28" fill="none" xmlns="http://www.w3.org/2000/svg">
<path d="M10.3134 13.5242C12.74 13.5242 14.7117 11.5525 14.7117 9.12587C14.7117 6.6992 12.74 4.72754 10.3134 4.72754C7.88669 4.72754 5.91504 6.6992 5.91504 9.12587C5.91504 11.5525 7.88669 13.5242 10.3134 13.5242Z" fill="#262833"/>
<path d="M18.853 20.3981V22.4048C18.853 22.8831 18.468 23.2798 17.978 23.2798H3.20801C2.72967 23.2798 2.33301 22.8831 2.33301 22.4048V20.3981C2.33301 17.5865 4.61967 15.2998 7.43134 15.2998H13.7547C14.3263 15.2998 14.8747 15.3931 15.388 15.5798C15.388 15.5798 15.388 15.5681 15.3997 15.5798C17.4063 16.2565 18.853 18.1581 18.853 20.3981Z" fill="#262833"/>
<path d="M18.853 20.3981V22.4048C18.853 22.8831 18.468 23.2798 17.978 23.2798H3.20801C2.72967 23.2798 2.33301 22.8831 2.33301 22.4048V20.3981C2.33301 17.5865 4.61967 15.2998 7.43134 15.2998H13.7547C14.3263 15.2998 14.8747 15.3931 15.388 15.5798C15.388 15.5798 15.388 15.5681 15.3997 15.5798C17.4063 16.2565 18.853 18.1581 18.853 20.3981Z" fill="#262833"/>
<path d="M25.6659 19.697V21.342C25.6659 21.727 25.3509 22.042 24.9659 22.042H20.6026V20.7003C20.6026 19.522 20.2992 18.402 19.7742 17.4336C19.5526 17.037 19.3076 16.6636 19.0276 16.3253C18.8292 16.1036 18.6309 15.882 18.4209 15.6953H21.6642C21.7926 15.6953 21.9092 15.6953 22.0259 15.7186C22.1776 15.7303 22.3292 15.7536 22.4809 15.7886C23.3676 15.9753 24.1376 16.4653 24.7092 17.1186C24.8026 17.2236 24.8959 17.3403 24.9776 17.4686C24.9892 17.4686 24.9892 17.4686 24.9776 17.4803C25.1992 17.807 25.3742 18.157 25.4909 18.542C25.5259 18.6703 25.5609 18.7986 25.5842 18.927C25.6426 19.172 25.6659 19.4286 25.6659 19.697Z" fill="#262833"/>
<path d="M19.1104 13.3624C21.037 13.3624 22.5987 11.8006 22.5987 9.87407C22.5987 7.94752 21.037 6.38574 19.1104 6.38574C17.1839 6.38574 15.6221 7.94752 15.6221 9.87407C15.6221 11.8006 17.1839 13.3624 19.1104 13.3624Z" fill="#262833"/>
</svg>
