<svg width="20" height="20" viewBox="0 0 20 20" fill="none" xmlns="http://www.w3.org/2000/svg">
<path d="M16.4805 3.51981C14.8213 1.86064 12.5297 0.833984 9.99967 0.833984C7.46967 0.833984 5.178 1.86064 3.51883 3.51981C1.85967 5.17898 0.833008 7.47065 0.833008 10.0007C0.833008 15.0607 4.93967 19.1673 9.99967 19.1673C12.5297 19.1673 14.8213 18.1407 16.4805 16.4815C18.1397 14.8223 19.1663 12.5307 19.1663 10.0007C19.1663 7.47065 18.1397 5.17898 16.4805 3.51981ZM13.0705 10.6607L8.74385 12.879C8.64301 12.934 8.52385 12.9615 8.40468 12.9615C8.27635 12.9615 8.13884 12.9248 8.01967 12.8515C7.79967 12.714 7.66219 12.4757 7.66219 12.219V7.78231C7.66219 7.52564 7.79967 7.28733 8.01967 7.14983C8.23967 7.01233 8.51468 7.00314 8.74385 7.1223L13.0705 9.34065C13.3272 9.46898 13.4738 9.71648 13.4738 10.0007C13.4738 10.2848 13.3272 10.5323 13.0705 10.6607Z" fill="white"/>
</svg>
