<svg width="22" height="22" viewBox="0 0 22 22" fill="none" xmlns="http://www.w3.org/2000/svg">
<path d="M16.5 2.75H5.5C4.77065 2.75 4.07118 3.03973 3.55546 3.55546C3.03973 4.07118 2.75 4.77065 2.75 5.5V16.5C2.75 17.2293 3.03973 17.9288 3.55546 18.4445C4.07118 18.9603 4.77065 19.25 5.5 19.25H16.5C17.2293 19.25 17.9288 18.9603 18.4445 18.4445C18.9603 17.9288 19.25 17.2293 19.25 16.5V5.5C19.25 4.77065 18.9603 4.07118 18.4445 3.55546C17.9288 3.03973 17.2293 2.75 16.5 2.75ZM7.33333 6.41667C7.60528 6.41667 7.87112 6.49731 8.09724 6.6484C8.32336 6.79948 8.4996 7.01423 8.60367 7.26548C8.70774 7.51673 8.73497 7.79319 8.68191 8.05992C8.62886 8.32664 8.4979 8.57164 8.30561 8.76394C8.11331 8.95624 7.86831 9.08719 7.60158 9.14025C7.33486 9.1933 7.05839 9.16607 6.80714 9.062C6.5559 8.95793 6.34115 8.78169 6.19006 8.55558C6.03898 8.32946 5.95833 8.06362 5.95833 7.79167C5.95833 7.42699 6.1032 7.07726 6.36106 6.81939C6.61892 6.56153 6.96866 6.41667 7.33333 6.41667V6.41667ZM17.4167 16.3442C17.4369 16.6079 17.3518 16.8688 17.18 17.0699C17.0081 17.2709 16.7636 17.3956 16.5 17.4167H5.5L12.4392 11.165C12.5557 11.0587 12.7077 10.9998 12.8654 10.9998C13.0231 10.9998 13.1751 11.0587 13.2917 11.165L17.4167 15.2717V16.3442Z" fill="#5C5F66"/>
</svg>
