<svg width="22" height="22" viewBox="0 0 22 22" fill="none" xmlns="http://www.w3.org/2000/svg">
<path d="M5.60059 7.2312C5.60059 9.13786 6.60894 10.8887 8.23144 11.8604L7.69061 12.392C7.41561 12.667 7.41561 13.0979 7.69061 13.3637L8.13977 13.822L7.69061 14.2804C7.41561 14.5462 7.41561 14.9862 7.69061 15.252L8.13977 15.7104L7.69061 16.1595C7.41561 16.4345 7.41561 16.8654 7.69061 17.1404L8.42394 17.8737V18.5337C8.42394 18.7904 8.57059 19.0287 8.80892 19.1479L10.6973 20.092C10.7889 20.1379 10.8898 20.1654 10.9998 20.1654C11.1098 20.1654 11.2106 20.1379 11.3023 20.092L13.1906 19.1479C13.4289 19.0287 13.5756 18.7904 13.5756 18.5337V11.9704C15.2989 11.0354 16.3989 9.22036 16.3989 7.2312C16.3989 4.25203 13.9789 1.83203 10.9998 1.83203C8.0206 1.83203 5.60059 4.25203 5.60059 7.2312ZM10.9998 4.65537C11.6414 4.65537 12.1548 5.17786 12.1548 5.81953C12.1548 6.45203 11.6414 6.97453 10.9998 6.97453C10.3581 6.97453 9.84476 6.45203 9.84476 5.81953C9.84476 5.17786 10.3581 4.65537 10.9998 4.65537Z" fill="white"/>
</svg>
