<svg width="26" height="26" viewBox="0 0 26 26" fill="none" xmlns="http://www.w3.org/2000/svg">
<path d="M13.0003 2.16602C7.03116 2.16602 2.16699 7.03018 2.16699 12.9993C2.16699 18.9685 7.03116 23.8327 13.0003 23.8327C18.9695 23.8327 23.8337 18.9685 23.8337 12.9993C23.8337 7.03018 18.9695 2.16602 13.0003 2.16602ZM14.712 15.101C14.9937 15.4477 14.9503 15.9569 14.6037 16.2385C14.452 16.3685 14.2678 16.4227 14.0837 16.4227C13.8453 16.4227 13.6178 16.3252 13.4553 16.1302L11.2887 13.5193C11.0395 13.216 11.0395 12.7827 11.2887 12.4794L13.4553 9.86852C13.7478 9.52185 14.257 9.46768 14.6037 9.76018C14.9503 10.0418 14.9937 10.551 14.712 10.8977L12.9787 12.9993L14.712 15.101Z" fill="white"/>
</svg>
