<svg width="20" height="20" viewBox="0 0 20 20" fill="none" xmlns="http://www.w3.org/2000/svg">
<path d="M10.0003 16.666C13.667 16.666 16.667 13.666 16.667 9.99935C16.667 6.33268 13.667 3.33268 10.0003 3.33268C6.33366 3.33268 3.33366 6.33268 3.33366 9.99935C3.33366 13.666 6.33366 16.666 10.0003 16.666ZM10.0003 1.66602C14.5837 1.66602 18.3337 5.41602 18.3337 9.99935C18.3337 14.5827 14.5837 18.3327 10.0003 18.3327C5.41699 18.3327 1.66699 14.5827 1.66699 9.99935C1.66699 5.41602 5.41699 1.66602 10.0003 1.66602ZM12.7503 13.4993L11.667 14.166L9.16699 9.83268V5.83268H10.417V9.49935L12.7503 13.4993Z" fill="white"/>
</svg>
