<svg width="22" height="22" viewBox="0 0 22 22" fill="none" xmlns="http://www.w3.org/2000/svg">
<path d="M10.9822 1.83301C6.8939 1.83301 3.56641 5.16051 3.56641 9.25801C3.56641 10.7155 3.98805 12.0813 4.72139 13.2272C4.98722 13.6488 5.28972 14.0339 5.63805 14.3914L5.92222 14.6755C6.01388 14.7489 6.09639 14.8313 6.18806 14.9138C6.60056 15.2622 7.0589 15.5647 7.54474 15.8214C7.6639 15.8855 7.78306 15.9405 7.90222 15.9955C8.02139 16.0505 8.14055 16.1055 8.26888 16.1513C8.69972 16.3255 9.15806 16.463 9.62556 16.5455C10.0656 16.628 10.5147 16.6738 10.9822 16.6738C11.4589 16.6738 11.9172 16.628 12.3664 16.5363C12.8431 16.4538 13.2922 16.3255 13.7231 16.1513V16.1422C13.8422 16.0963 13.9706 16.0413 14.0897 15.9863C14.2089 15.9313 14.3281 15.8672 14.4472 15.8122C14.4747 15.7938 14.4931 15.7847 14.5206 15.7755C14.8414 15.5922 15.1439 15.3997 15.428 15.198C15.5472 15.0972 15.6572 15.0147 15.7672 14.923C15.8681 14.8313 15.9689 14.7488 16.0697 14.6572C16.1614 14.5655 16.2622 14.4647 16.3539 14.373C16.6931 14.0155 16.9956 13.6305 17.2706 13.2088C17.9856 12.063 18.4072 10.7063 18.4072 9.25801C18.4072 5.16051 15.0797 1.83301 10.9822 1.83301ZM14.5022 8.69883L13.0447 10.1288C12.9806 10.1838 12.9531 10.2755 12.9714 10.3672L13.3197 12.3747C13.3564 12.5947 13.1272 12.7597 12.9256 12.6588L11.1197 11.7055C11.0372 11.6688 10.9456 11.6688 10.8631 11.7055L9.05723 12.6588C8.85556 12.7597 8.6264 12.5947 8.66307 12.3747L9.01138 10.3672C9.02055 10.2755 8.99306 10.193 8.93806 10.1288L7.47139 8.69883C7.31555 8.543 7.39806 8.27717 7.61806 8.2405L9.64388 7.94719C9.72638 7.93802 9.79972 7.88302 9.84555 7.80052L10.7439 5.96718C10.8447 5.76552 11.1289 5.76552 11.2297 5.96718L12.1281 7.80052C12.1739 7.88302 12.2472 7.93802 12.3297 7.94719L14.3556 8.2405C14.5756 8.27717 14.6581 8.543 14.5022 8.69883Z" fill="white"/>
<path d="M5.16068 15.2068C4.81235 14.8676 4.49152 14.501 4.21652 14.0977L2.6215 16.866C2.49316 17.086 2.49317 17.3518 2.63067 17.5718C2.75901 17.7827 2.979 17.911 3.254 17.8926L5.50902 17.7735L6.53568 19.7901C6.64568 20.0101 6.87484 20.1568 7.13151 20.166C7.13151 20.166 7.14067 20.166 7.14983 20.166C7.38817 20.166 7.61735 20.0376 7.74569 19.8176L9.14819 17.3793C8.68985 17.2785 8.24067 17.141 7.80983 16.9577C6.81067 16.5452 5.91235 15.9493 5.16068 15.2068Z" fill="white"/>
<path d="M19.3874 16.8658L17.7741 14.0791C17.4899 14.4824 17.1782 14.8583 16.8207 15.1883C16.0691 15.94 15.1707 16.5358 14.1807 16.9483C13.7499 17.1316 13.3099 17.2691 12.8516 17.37L14.2632 19.8174C14.3824 20.0374 14.6116 20.1658 14.8591 20.1658C14.8591 20.1658 14.8682 20.1658 14.8774 20.1658C15.1249 20.1566 15.3541 20.0099 15.4641 19.7899L16.4907 17.7733L18.7549 17.8924C19.0207 17.9108 19.2408 17.7825 19.3783 17.5716C19.5066 17.3516 19.5066 17.0858 19.3874 16.8658Z" fill="white"/>
</svg>
