<svg width="22" height="22" viewBox="0 0 22 22" fill="none" xmlns="http://www.w3.org/2000/svg">
<path d="M7.38829 1.86914H5.40828C3.47412 1.86914 1.89746 3.44581 1.89746 5.37998V7.27748C1.89746 7.65331 2.20913 7.96498 2.58496 7.96498C2.96079 7.96498 3.27246 7.65331 3.27246 7.27748V5.37998C3.27246 4.19748 4.23495 3.24414 5.40828 3.24414H7.38829C7.76412 3.24414 8.07579 2.93247 8.07579 2.55664C8.07579 2.18081 7.77328 1.86914 7.38829 1.86914Z" fill="white"/>
<path d="M16.5825 1.86914H14.6025C14.2267 1.86914 13.915 2.18081 13.915 2.55664C13.915 2.93247 14.2267 3.24414 14.6025 3.24414H16.5825C17.765 3.24414 18.7184 4.20664 18.7184 5.37998V7.27748C18.7184 7.65331 19.0301 7.96498 19.4059 7.96498C19.7817 7.96498 20.0934 7.65331 20.0934 7.27748V5.37998C20.1026 3.44581 18.5259 1.86914 16.5825 1.86914Z" fill="white"/>
<path d="M7.38829 18.754H5.40828C4.22578 18.754 3.27246 17.7915 3.27246 16.6182V14.7207C3.27246 14.3449 2.96079 14.0332 2.58496 14.0332C2.20913 14.0332 1.89746 14.3449 1.89746 14.7207V16.6182C1.89746 18.5524 3.47412 20.129 5.40828 20.129H7.38829C7.76412 20.129 8.07579 19.8265 8.07579 19.4415C8.07579 19.0657 7.77328 18.754 7.38829 18.754Z" fill="white"/>
<path d="M19.4147 14.0332C19.0388 14.0332 18.7272 14.3449 18.7272 14.7207V16.6182C18.7272 17.8007 17.7647 18.754 16.5913 18.754H14.6113C14.2355 18.754 13.9238 19.0657 13.9238 19.4415C13.9238 19.8174 14.2355 20.129 14.6113 20.129H16.5913C18.5255 20.129 20.1022 18.5524 20.1022 16.6182V14.7207C20.1022 14.3357 19.7905 14.0332 19.4147 14.0332Z" fill="white"/>
<path d="M10.8814 10.5322C12.5039 10.5322 13.833 9.21223 13.833 7.58057C13.833 5.9489 12.513 4.62891 10.8814 4.62891C9.24969 4.62891 7.92969 5.9489 7.92969 7.58057C7.92969 9.21223 9.25886 10.5322 10.8814 10.5322Z" fill="white"/>
<path d="M13.0994 11.4209H9.03853C7.15937 11.4209 5.6377 12.9517 5.6377 14.8217V15.1976C5.6377 16.0776 6.36186 16.8017 7.24186 16.8017H14.9052C15.7852 16.8017 16.5094 16.0776 16.5094 15.1976V14.8217C16.5002 12.9426 14.9785 11.4209 13.0994 11.4209Z" fill="white"/>
</svg>
