<svg width="28" height="46" viewBox="0 0 28 46" fill="none" xmlns="http://www.w3.org/2000/svg">
<path d="M25.6673 13.288V21.1163C25.6673 23.6247 23.7073 25.6663 21.2923 25.6663H16.9173V20.0663C16.9173 19.3197 16.3107 18.713 15.564 18.713H12.4373C11.6907 18.713 11.0957 19.3197 11.0957 20.0663V25.6663H6.70898C4.29398 25.6663 2.33398 23.6247 2.33398 21.1163V13.288C2.33398 11.9463 2.90565 10.6747 3.88565 9.79966L11.1773 3.40633C12.8223 1.97133 15.1907 1.97133 16.824 3.40633L24.1157 9.79966C25.1073 10.6747 25.6673 11.9463 25.6673 13.288Z" fill="#3971FA"/>
<path d="M0.744922 43V35.8H1.78992V38.905H5.38992V35.8H6.43992V43H5.38992V39.89H1.78992V43H0.744922ZM10.1895 43.15C9.64953 43.15 9.1812 43.0283 8.78453 42.785C8.38786 42.5417 8.0812 42.2067 7.86453 41.78C7.6512 41.35 7.54453 40.855 7.54453 40.295C7.54453 39.7317 7.65453 39.2367 7.87453 38.81C8.09453 38.38 8.40286 38.0467 8.79953 37.81C9.1962 37.57 9.65953 37.45 10.1895 37.45C10.7295 37.45 11.1979 37.5717 11.5945 37.815C11.9912 38.0583 12.2979 38.3933 12.5145 38.82C12.7312 39.2467 12.8395 39.7383 12.8395 40.295C12.8395 40.8583 12.7295 41.355 12.5095 41.785C12.2929 42.2117 11.9862 42.5467 11.5895 42.79C11.1929 43.03 10.7262 43.15 10.1895 43.15ZM10.1895 42.165C10.7062 42.165 11.0912 41.9917 11.3445 41.645C11.6012 41.295 11.7295 40.845 11.7295 40.295C11.7295 39.7317 11.5995 39.2817 11.3395 38.945C11.0829 38.605 10.6995 38.435 10.1895 38.435C9.83953 38.435 9.5512 38.515 9.32453 38.675C9.09786 38.8317 8.92953 39.05 8.81953 39.33C8.70953 39.6067 8.65453 39.9283 8.65453 40.295C8.65453 40.8617 8.78453 41.315 9.04453 41.655C9.30453 41.995 9.6862 42.165 10.1895 42.165ZM20.4083 43L20.4133 39.635C20.4133 39.245 20.3133 38.9417 20.1133 38.725C19.9133 38.505 19.6499 38.395 19.3233 38.395C19.1233 38.395 18.9399 38.4417 18.7733 38.535C18.6099 38.625 18.4766 38.7617 18.3733 38.945C18.2733 39.125 18.2233 39.3517 18.2233 39.625L17.7183 39.37C17.7116 38.99 17.7916 38.6567 17.9583 38.37C18.1283 38.0833 18.3583 37.8617 18.6483 37.705C18.9383 37.545 19.2633 37.465 19.6233 37.465C20.2066 37.465 20.6583 37.64 20.9783 37.99C21.2983 38.34 21.4583 38.805 21.4583 39.385L21.4533 43H20.4083ZM13.9333 43V37.6H14.8633V39.16H14.9833V43H13.9333ZM17.1733 43L17.1783 39.655C17.1783 39.2617 17.0783 38.9533 16.8783 38.73C16.6816 38.5067 16.4166 38.395 16.0833 38.395C15.7533 38.395 15.4866 38.5083 15.2833 38.735C15.0833 38.9617 14.9833 39.2583 14.9833 39.625L14.4833 39.305C14.4833 38.9517 14.5683 38.6367 14.7383 38.36C14.9083 38.0833 15.1383 37.865 15.4283 37.705C15.7183 37.545 16.0466 37.465 16.4133 37.465C16.7966 37.465 17.1233 37.5467 17.3933 37.71C17.6633 37.87 17.8683 38.095 18.0083 38.385C18.1516 38.675 18.2233 39.0117 18.2233 39.395L18.2183 43H17.1733ZM25.0833 43.15C24.5466 43.15 24.0749 43.0333 23.6683 42.8C23.2649 42.5633 22.9499 42.235 22.7233 41.815C22.4999 41.3917 22.3883 40.9017 22.3883 40.345C22.3883 39.755 22.4983 39.2433 22.7183 38.81C22.9416 38.3767 23.2516 38.0417 23.6483 37.805C24.0449 37.5683 24.5066 37.45 25.0333 37.45C25.5833 37.45 26.0516 37.5783 26.4383 37.835C26.8249 38.0883 27.1133 38.45 27.3033 38.92C27.4966 39.39 27.5733 39.9483 27.5333 40.595H26.4883V40.215C26.4816 39.5883 26.3616 39.125 26.1283 38.825C25.8983 38.525 25.5466 38.375 25.0733 38.375C24.5499 38.375 24.1566 38.54 23.8933 38.87C23.6299 39.2 23.4983 39.6767 23.4983 40.3C23.4983 40.8933 23.6299 41.3533 23.8933 41.68C24.1566 42.0033 24.5366 42.165 25.0333 42.165C25.3599 42.165 25.6416 42.0917 25.8783 41.945C26.1183 41.795 26.3049 41.5817 26.4383 41.305L27.4633 41.63C27.2533 42.1133 26.9349 42.4883 26.5083 42.755C26.0816 43.0183 25.6066 43.15 25.0833 43.15ZM23.1583 40.595V39.78H27.0133V40.595H23.1583Z" fill="#3971FA"/>
</svg>
