<svg width="88" height="30" viewBox="0 0 88 30" fill="none" xmlns="http://www.w3.org/2000/svg">
<path d="M40.018 22L45.022 9.4H48.118L53.014 22H49.99L48.982 19.318H43.942L42.952 22H40.018ZM44.752 17.122H48.154L46.516 12.766H46.372L44.752 17.122ZM54.2674 22V9.4H63.6814V11.812H57.0034V14.818H63.5014V17.23H57.0034V22H54.2674ZM64.3127 22L68.4887 15.7V15.556L64.2947 9.4H67.6067L70.5047 13.72H70.6487L73.4027 9.4H76.5707L72.4847 15.61V15.754L76.7327 22H73.4027L70.4507 17.59H70.3067L67.4987 22H64.3127Z" fill="white"/>
<path d="M84.7014 16.1296C83.6106 16.1296 83.1138 15.622 82.8438 14.7148H82.7682V17.89H81.3858V10.5136C81.3858 8.7424 82.509 7.9864 84.0318 7.9864C85.6086 7.9864 86.4834 8.7532 86.4834 9.9412V10.1572C86.4834 10.924 86.1486 11.734 84.5394 11.8204V11.896C86.2134 11.9716 86.7534 12.7492 86.7534 13.8076V14.1208C86.7534 15.4276 85.7814 16.1296 84.7014 16.1296ZM82.7682 13.3432C82.7682 14.4664 83.1462 14.9416 84.1074 14.9416C84.7986 14.9416 85.317 14.6068 85.317 13.8616V13.5268C85.317 12.8248 84.7878 12.49 84.1074 12.49H83.3946V11.3776H84.0642C84.7986 11.3776 85.0902 10.9564 85.0902 10.3948V10.2004C85.0902 9.5092 84.7014 9.1744 83.9778 9.1744C83.2218 9.1744 82.7682 9.5092 82.7682 10.3192V13.3432Z" fill="#1657FF"/>
<path d="M15.0053 0.195592C14.7802 0.0674573 14.5249 0 14.265 0C14.0051 0 13.7497 0.0674573 13.5246 0.195592L6.48861 4.25487L20.2537 12.1835V28.2367L27.2717 24.1893C27.4936 24.0616 27.6776 23.8787 27.8054 23.659C27.9332 23.4393 28.0003 23.1903 28 22.9371V7.71476L15.0053 0.195592Z" fill="#1657FF"/>
<path d="M6.50036 8.51667L0 12.2021L10.2321 18.0833V30L16.7204 26.3205C16.8852 26.2267 17.022 26.0918 17.1171 25.9292C17.2122 25.7667 17.2622 25.5824 17.2621 25.3947V14.0774L7.63191 8.51667C7.46116 8.41512 7.26554 8.36146 7.06614 8.36146C6.86673 8.36146 6.67111 8.41512 6.50036 8.51667Z" fill="#1657FF"/>
<path d="M7.12638 27.7746V19.7391L0.156541 23.7568L7.12638 27.7746Z" fill="#1657FF"/>
</svg>
