<svg width="22" height="22" viewBox="0 0 22 22" fill="none" xmlns="http://www.w3.org/2000/svg">
<g clip-path="url(#clip0_637_4300)">
<path d="M18.3622 3.63757C14.313 -0.411627 7.68702 -0.411627 3.63782 3.63757C-0.411384 7.68677 -0.411384 14.3127 3.63782 18.3619C7.68702 22.4111 14.313 22.4111 18.3622 18.3619C22.4114 14.3127 22.4114 7.68677 18.3622 3.63757ZM9.15945 4.7419H14.313V9.89543L12.4724 8.05488L9.52756 10.9998L8.05513 9.52732L11 6.58245L9.15945 4.7419ZM12.8405 17.2576L7.68702 17.2576L7.68702 12.1041L9.52756 13.9446L12.4724 10.9998L13.9449 12.4722L11 15.4171L12.8405 17.2576Z" fill="white"/>
</g>
<defs>
<clipPath id="clip0_637_4300">
<rect width="22" height="22" rx="7" fill="white"/>
</clipPath>
</defs>
</svg>
