<svg width="22" height="22" viewBox="0 0 22 22" fill="none" xmlns="http://www.w3.org/2000/svg">
<path d="M18.3906 9.625H12.375C11.828 9.625 11.3034 9.4077 10.9166 9.02091C10.5298 8.63411 10.3125 8.10951 10.3125 7.5625V1.54687C10.3125 1.50129 10.2944 1.45757 10.2622 1.42534C10.2299 1.39311 10.1862 1.375 10.1406 1.375H6.1875C5.45815 1.375 4.75868 1.66473 4.24296 2.18046C3.72723 2.69618 3.4375 3.39565 3.4375 4.125V17.875C3.4375 18.6043 3.72723 19.3038 4.24296 19.8195C4.75868 20.3353 5.45815 20.625 6.1875 20.625H15.8125C16.5418 20.625 17.2413 20.3353 17.757 19.8195C18.2728 19.3038 18.5625 18.6043 18.5625 17.875V9.79687C18.5625 9.75129 18.5444 9.70757 18.5122 9.67534C18.4799 9.64311 18.4362 9.625 18.3906 9.625Z" fill="#5C5F66"/>
<path d="M18.0134 8.10374L11.834 1.9244C11.822 1.91246 11.8067 1.90433 11.7901 1.90105C11.7735 1.89776 11.7563 1.89946 11.7406 1.90594C11.7249 1.91241 11.7115 1.92337 11.7021 1.93744C11.6926 1.9515 11.6876 1.96805 11.6875 1.98499V7.56276C11.6875 7.7451 11.7599 7.91997 11.8889 8.0489C12.0178 8.17783 12.1927 8.25026 12.375 8.25026H17.9528C17.9697 8.25019 17.9863 8.24511 18.0003 8.23567C18.0144 8.22622 18.0254 8.21282 18.0318 8.19717C18.0383 8.18151 18.04 8.16428 18.0367 8.14766C18.0334 8.13104 18.0253 8.11576 18.0134 8.10374Z" fill="#5C5F66"/>
</svg>
