<svg width="22" height="22" viewBox="0 0 22 22" fill="none" xmlns="http://www.w3.org/2000/svg">
<path d="M8.83366 15.8753V6.12533L15.3337 11.0003L8.83366 15.8753ZM11.0003 0.166992C9.57767 0.166992 8.16895 0.447205 6.85459 0.991631C5.54023 1.53606 4.34597 2.33403 3.34 3.34C1.30836 5.37165 0.166992 8.12715 0.166992 11.0003C0.166992 13.8735 1.30836 16.629 3.34 18.6606C4.34597 19.6666 5.54023 20.4646 6.85459 21.009C8.16895 21.5534 9.57767 21.8337 11.0003 21.8337C13.8735 21.8337 16.629 20.6923 18.6606 18.6606C20.6923 16.629 21.8337 13.8735 21.8337 11.0003C21.8337 9.57767 21.5534 8.16895 21.009 6.85459C20.4646 5.54023 19.6666 4.34597 18.6606 3.34C17.6547 2.33403 16.4604 1.53606 15.1461 0.991631C13.8317 0.447205 12.423 0.166992 11.0003 0.166992V0.166992Z" fill="white"/>
</svg>
