<svg width="20" height="20" viewBox="0 0 20 20" fill="none" xmlns="http://www.w3.org/2000/svg">
<path d="M15.408 14.9415C15.1697 14.2081 14.4822 13.6673 13.6663 13.6673H12.7497V10.9173C12.7497 10.6742 12.6531 10.441 12.4812 10.2691C12.3093 10.0972 12.0761 10.0007 11.833 10.0007H6.33301V8.16732H8.16634C8.40945 8.16732 8.64261 8.07074 8.81452 7.89883C8.98643 7.72692 9.08301 7.49377 9.08301 7.25065V5.41732H10.9163C11.4026 5.41732 11.8689 5.22416 12.2127 4.88035C12.5565 4.53653 12.7497 4.07021 12.7497 3.58398V3.20815C15.4355 4.28982 17.333 6.92065 17.333 10.0007C17.333 11.9073 16.5997 13.6398 15.408 14.9415ZM9.08301 17.2698C5.46217 16.8207 2.66634 13.7407 2.66634 10.0007C2.66634 9.43232 2.73967 8.88232 2.85884 8.35982L7.24967 12.7507V13.6673C7.24967 14.1535 7.44283 14.6199 7.78664 14.9637C8.13046 15.3075 8.59678 15.5007 9.08301 15.5007V17.2698ZM9.99967 0.833984C8.79589 0.833984 7.60389 1.07109 6.49174 1.53176C5.37959 1.99242 4.36907 2.66764 3.51786 3.51884C1.79878 5.23792 0.833008 7.5695 0.833008 10.0007C0.833008 12.4318 1.79878 14.7634 3.51786 16.4825C4.36907 17.3337 5.37959 18.0089 6.49174 18.4695C7.60389 18.9302 8.79589 19.1673 9.99967 19.1673C12.4308 19.1673 14.7624 18.2015 16.4815 16.4825C18.2006 14.7634 19.1663 12.4318 19.1663 10.0007C19.1663 8.79687 18.9292 7.60487 18.4686 6.49272C18.0079 5.38057 17.3327 4.37004 16.4815 3.51884C15.6303 2.66764 14.6198 1.99242 13.5076 1.53176C12.3955 1.07109 11.2035 0.833984 9.99967 0.833984V0.833984Z" fill="#5C5F66"/>
</svg>
