<svg width="22" height="22" viewBox="0 0 22 22" fill="none" xmlns="http://www.w3.org/2000/svg">
<path d="M3.66667 0.915039H18.3333C18.5764 0.915039 18.8096 1.01162 18.9815 1.18352C19.1534 1.35543 19.25 1.58859 19.25 1.83171V5.49837C19.25 5.74149 19.1534 5.97464 18.9815 6.14655C18.8096 6.31846 18.5764 6.41504 18.3333 6.41504H3.66667C3.42355 6.41504 3.19039 6.31846 3.01849 6.14655C2.84658 5.97464 2.75 5.74149 2.75 5.49837V1.83171C2.75 1.58859 2.84658 1.35543 3.01849 1.18352C3.19039 1.01162 3.42355 0.915039 3.66667 0.915039ZM3.66667 8.24837H18.3333C18.5764 8.24837 18.8096 8.34495 18.9815 8.51686C19.1534 8.68877 19.25 8.92192 19.25 9.16504V12.8317C19.25 13.0748 19.1534 13.308 18.9815 13.4799C18.8096 13.6518 18.5764 13.7484 18.3333 13.7484H3.66667C3.42355 13.7484 3.19039 13.6518 3.01849 13.4799C2.84658 13.308 2.75 13.0748 2.75 12.8317V9.16504C2.75 8.92192 2.84658 8.68877 3.01849 8.51686C3.19039 8.34495 3.42355 8.24837 3.66667 8.24837ZM3.66667 15.5817H18.3333C18.5764 15.5817 18.8096 15.6783 18.9815 15.8502C19.1534 16.0221 19.25 16.2553 19.25 16.4984V20.165C19.25 20.4082 19.1534 20.6413 18.9815 20.8132C18.8096 20.9851 18.5764 21.0817 18.3333 21.0817H3.66667C3.42355 21.0817 3.19039 20.9851 3.01849 20.8132C2.84658 20.6413 2.75 20.4082 2.75 20.165V16.4984C2.75 16.2553 2.84658 16.0221 3.01849 15.8502C3.19039 15.6783 3.42355 15.5817 3.66667 15.5817ZM8.25 4.58171H9.16667V2.74837H8.25V4.58171ZM8.25 11.915H9.16667V10.0817H8.25V11.915ZM8.25 19.2484H9.16667V17.415H8.25V19.2484ZM4.58333 2.74837V4.58171H6.41667V2.74837H4.58333ZM4.58333 10.0817V11.915H6.41667V10.0817H4.58333ZM4.58333 17.415V19.2484H6.41667V17.415H4.58333Z" fill="#5C5F66"/>
</svg>
