<svg width="28" height="28" viewBox="0 0 28 28" fill="none" xmlns="http://www.w3.org/2000/svg">
<path d="M23.9058 9.21615C23.8925 9.63377 23.7797 10.0422 23.5767 10.4074C23.3738 10.7727 23.0866 11.0842 22.7391 11.3162L15.1674 15.7845C14.8117 15.9871 14.4101 16.0956 14.0008 16.0995C13.5915 16.1063 13.1882 16.0014 12.8341 15.7962L5.27409 11.3162C4.92517 11.0856 4.63695 10.7744 4.43386 10.4089C4.23077 10.0433 4.1188 9.63418 4.10742 9.21615C4.12065 8.80012 4.2335 8.39333 4.43651 8.02995C4.63952 7.66656 4.92675 7.3572 5.27409 7.12782L12.8341 2.63615C13.191 2.43798 13.5925 2.33398 14.0008 2.33398C14.409 2.33398 14.8105 2.43798 15.1674 2.63615L22.7274 7.12782C23.0804 7.35218 23.3726 7.66014 23.5781 8.02441C23.7837 8.38867 23.8962 8.79801 23.9058 9.21615Z" fill="#262833"/>
<path d="M23.9048 13.9995C23.9107 14.4194 23.8061 14.8334 23.6013 15.2C23.3965 15.5666 23.0988 15.8728 22.7381 16.0879L15.1664 20.5679C14.8105 20.77 14.4091 20.8784 13.9998 20.8829C13.5919 20.879 13.1912 20.7749 12.8331 20.5795L5.2731 16.0879C4.90827 15.8775 4.60719 15.5722 4.40179 15.2046C4.19639 14.8369 4.09433 14.4205 4.10643 13.9995C4.10579 13.6628 4.17325 13.3295 4.30477 13.0195L4.42143 13.1012L12.0048 17.6162C12.6191 17.9567 13.3091 18.1372 14.0114 18.1412C14.7299 18.1412 15.4352 17.9478 16.0531 17.5812L23.6131 13.1012L23.7181 13.0312C23.8456 13.3379 23.9091 13.6674 23.9048 13.9995Z" fill="#262833"/>
<path d="M23.9051 18.7711C23.912 19.1927 23.8078 19.6087 23.603 19.9773C23.3982 20.3459 23.1001 20.6541 22.7385 20.8711L15.1668 25.3511C14.8109 25.5532 14.4094 25.6616 14.0001 25.6661C13.5922 25.6622 13.1916 25.5581 12.8335 25.3627L5.27346 20.8711C4.90685 20.6597 4.60461 20.3527 4.3991 19.9827C4.19359 19.6128 4.09255 19.194 4.10679 18.7711C4.10707 18.4382 4.17453 18.1089 4.30512 17.8027L4.42179 17.8844L12.0051 22.3877C12.6173 22.7335 13.3087 22.9144 14.0118 22.9127C14.731 22.9181 15.4376 22.7242 16.0535 22.3527L23.6135 17.8844L23.7185 17.8144C23.8447 18.1174 23.9082 18.4428 23.9051 18.7711Z" fill="#262833"/>
</svg>
