<svg width="20" height="20" viewBox="0 0 20 20" fill="none" xmlns="http://www.w3.org/2000/svg">
<path d="M10 0C5.54826 0 1.59176 2.99027 0.379586 7.27157C0.345238 7.39244 0.365673 7.52216 0.433933 7.62738C0.502629 7.73259 0.613179 7.80275 0.737092 7.82014L6.48013 8.62772C6.66187 8.65337 6.83183 8.5534 6.91661 8.39079C7.394 7.47862 8.26371 6.80437 9.30197 6.59307C9.48153 6.55655 9.62448 6.42111 9.65014 6.23981L10.4569 0.496773C10.4743 0.37199 10.4231 0.245523 10.3405 0.150306C10.2588 0.0550883 10.1257 0 10 0ZM12.5442 0.368546C12.4836 0.377785 12.425 0.399803 12.3726 0.433933C12.2674 0.502629 12.1972 0.613179 12.1799 0.737092L11.3723 6.48013C11.3466 6.66187 11.4466 6.83183 11.6092 6.91661C12.5214 7.394 13.1956 8.26371 13.4069 9.30197C13.4435 9.48153 13.5789 9.62448 13.7602 9.65014L19.5032 10.4569C19.5197 10.4595 19.5368 10.4603 19.5533 10.4603C19.6616 10.4603 19.7671 10.4131 19.8497 10.3414C19.9449 10.2592 20 10.1257 20 10C20 5.54826 17.0097 1.59176 12.7284 0.379586C12.6673 0.362412 12.6047 0.359307 12.5442 0.368546ZM0.403363 9.54059C0.310795 9.55113 0.221719 9.59667 0.150306 9.65863C0.0550883 9.7408 0 9.87435 0 10C0 14.4517 2.99027 18.4082 7.27157 19.6204C7.3107 19.6313 7.35048 19.6365 7.38961 19.6365C7.47308 19.6365 7.55607 19.6122 7.62738 19.5661C7.73259 19.4974 7.80275 19.3868 7.82014 19.2629L8.62772 13.5199C8.65337 13.3381 8.5534 13.1682 8.39079 13.0834C7.47819 12.606 6.80437 11.7359 6.59307 10.6972C6.55655 10.5176 6.42111 10.3755 6.23981 10.3499L0.496773 9.54229C0.465795 9.5374 0.434219 9.53708 0.403363 9.54059ZM13.5199 11.3723C13.3381 11.3466 13.1682 11.4466 13.0834 11.6092C12.606 12.5214 11.7363 13.1956 10.698 13.4069C10.5185 13.4435 10.3755 13.5789 10.3499 13.7602L9.54314 19.5032C9.52575 19.628 9.57687 19.7545 9.65948 19.8497C9.74122 19.9449 9.87435 20 10 20C14.4517 20 18.4082 17.0097 19.6204 12.7284C19.6548 12.6076 19.6343 12.4778 19.5661 12.3726C19.4974 12.2674 19.3868 12.1972 19.2629 12.1799L13.5199 11.3723Z" fill="white"/>
</svg>
