<svg width="22" height="22" viewBox="0 0 22 22" fill="none" xmlns="http://www.w3.org/2000/svg">
<path d="M20.1663 9.85449C20.5422 9.85449 20.8538 9.54283 20.8538 9.16699V8.25033C20.8538 4.20783 19.6255 2.97949 15.583 2.97949H9.85384V5.04199C9.85384 5.41783 9.54217 5.72949 9.16634 5.72949C8.79051 5.72949 8.47884 5.41783 8.47884 5.04199V2.97949H6.41634C2.37384 2.97949 1.14551 4.20783 1.14551 8.25033V8.70866C1.14551 9.08449 1.45717 9.39616 1.83301 9.39616C2.71301 9.39616 3.43717 10.1203 3.43717 11.0003C3.43717 11.8803 2.71301 12.6045 1.83301 12.6045C1.45717 12.6045 1.14551 12.9162 1.14551 13.292V13.7503C1.14551 17.7928 2.37384 19.0212 6.41634 19.0212H8.47884V16.9587C8.47884 16.5828 8.79051 16.2712 9.16634 16.2712C9.54217 16.2712 9.85384 16.5828 9.85384 16.9587V19.0212H15.583C19.6255 19.0212 20.8538 17.7928 20.8538 13.7503C20.8538 13.3745 20.5422 13.0628 20.1663 13.0628C19.2863 13.0628 18.5622 12.3387 18.5622 11.4587C18.5622 10.5787 19.2863 9.85449 20.1663 9.85449ZM9.85384 12.9895C9.85384 13.3653 9.54217 13.677 9.16634 13.677C8.79051 13.677 8.47884 13.3653 8.47884 12.9895V9.01116C8.47884 8.63533 8.79051 8.32366 9.16634 8.32366C9.54217 8.32366 9.85384 8.63533 9.85384 9.01116V12.9895Z" fill="#5C5F66"/>
</svg>
