<svg width="24" height="24" viewBox="0 0 24 24" fill="none" xmlns="http://www.w3.org/2000/svg">
<g opacity="0.4">
<path fill-rule="evenodd" clip-rule="evenodd" d="M2.20956 18.1372L10.3124 4.0609C11.0127 2.64376 12.9848 2.64376 13.685 4.0609L21.7879 18.1372C22.4453 19.451 21.5164 21.001 20.1016 21.001L3.89586 21.001C2.48108 21.001 1.56648 19.4362 2.20956 18.1372ZM12.0027 9.16903C12.417 9.16903 12.7529 9.50489 12.7529 9.9192V13.5801C12.7529 13.9944 12.417 14.3302 12.0027 14.3302C11.5884 14.3302 11.2526 13.9944 11.2526 13.5801V9.9192C11.2526 9.50489 11.5884 9.16903 12.0027 9.16903ZM12.0027 17.0808C12.417 17.0808 12.7529 16.745 12.7529 16.3307C12.7529 15.9164 12.417 15.5805 12.0027 15.5805C11.5884 15.5805 11.2526 15.9164 11.2526 16.3307C11.2526 16.745 11.5884 17.0808 12.0027 17.0808Z" fill="white"/>
</g>
</svg>
