<svg width="22" height="22" viewBox="0 0 22 22" fill="none" xmlns="http://www.w3.org/2000/svg">
<path d="M1.83301 6.41699V12.8337H3.66634V6.41699H1.83301ZM5.49967 6.41699V8.25033H9.16634V10.0837H7.33301V12.8337H9.16634V11.917C10.1838 11.917 10.9997 11.1012 10.9997 10.0837V8.25033C10.9997 7.23283 10.1838 6.41699 9.16634 6.41699H5.49967ZM14.483 6.41699L14.2997 8.25033H12.833V10.0837H14.1163L13.933 11.917H12.833V13.7503H13.7497L13.5663 15.5837H15.3997L15.583 13.7503H16.8663L16.683 15.5837H18.5163L18.6997 13.7503H20.1663V11.917H18.883L19.0663 10.0837H20.1663V8.25033H19.2497L19.433 6.41699H17.5997L17.4163 8.25033H16.133L16.3163 6.41699H14.483ZM15.9497 10.0837H17.233L17.0497 11.917H15.7663L15.9497 10.0837ZM1.83301 13.7503V15.5837H3.66634V13.7503H1.83301ZM7.33301 13.7503V15.5837H9.16634V13.7503H7.33301Z" fill="#5C5F66"/>
</svg>
